<svg width="1280" height="1280" viewBox="0 0 256 256" fill="none" xmlns="http://www.w3.org/2000/svg">
<rect width="256" height="256" rx="30" fill="#3C8BE6"/>
<path d="M116.111 81.5556C116.111 75.1736 110.938 70 104.556 70C98.1736 70 93 75.1736 93 81.5556V139.333C93 145.405 94.1962 151.414 96.5208 157.022C98.8455 162.631 102.242 167.726 106.542 172.02C110.83 176.308 115.931 179.716 121.539 182.035C127.136 184.359 133.151 185.556 139.222 185.556H150.778C157.16 185.556 162.333 180.382 162.333 174C162.333 167.618 157.16 162.444 150.778 162.444H139.222C136.187 162.444 133.185 161.846 130.375 160.684C127.576 159.522 125.026 157.823 122.882 155.674C120.738 153.53 119.034 150.979 117.872 148.175C116.709 145.376 116.111 142.369 116.111 139.333V116.222H150.778C157.16 116.222 162.333 111.049 162.333 104.667C162.333 98.2847 157.16 93.1111 150.778 93.1111H116.111V81.5556Z" fill="white"/>
</svg>
